<?xml version="1.0" encoding="utf-8"?>
<!-- Generator: Adobe Illustrator 21.0.2, SVG Export Plug-In . SVG Version: 6.00 Build 0)  -->
<svg version="1.1" id="Layer_1" xmlns="http://www.w3.org/2000/svg" xmlns:xlink="http://www.w3.org/1999/xlink" x="0px" y="0px"
	 viewBox="0 0 388 35" style="enable-background:new 0 0 388 35;" xml:space="preserve">
<style type="text/css">
	.st0{fill:#FFFFFF;}
</style>
<g>
	<path class="st2" d="M13.9,0C6.3,0,0.2,5.4,0.2,11.8c0,0.2,0,0.3,0,0.5l0,0C0.7,22,13.9,34.7,13.9,34.7s13-12.6,13.7-22.4l0,0
		c0-0.2,0-0.3,0-0.5C27.6,5.4,21.3,0,13.9,0z M23.2,15.1c-0.7,0.9-1.7,0.9-2.6,0.3L20,14.9l-0.9,6.2c0,0.3-0.2,0.7-0.3,0.9
		c-0.2,0.2-0.3,0.3-0.7,0.3H16c-0.9,0-0.9-0.7-0.9-0.9l0,0l0,0l0.2-2.9c0-0.3-0.2-0.7-0.5-0.7h-2.3c-0.3,0-0.5,0.3-0.5,0.7l0.2,2.9
		c0,0,0,0.9-0.9,0.9H9.2c-0.2,0-0.5-0.2-0.7-0.3c-0.2-0.2-0.3-0.5-0.3-0.9l-0.9-6.2l-0.7,0.5l0,0c-0.3,0.2-0.7,0.3-1,0.3
		c-0.5,0-1-0.2-1.4-0.7c-0.7-0.9-0.5-1.9,0.3-2.6l8-6.2c0.7-0.5,1.6-0.5,2.3,0l8,6.2C23.8,13.2,23.9,14.4,23.2,15.1z"/>
	<g>
		<path class="st2" d="M37.5,26l2.6-3.8c2.3,1.6,4.7,2.4,6.6,2.4c1.7,0,2.4-0.7,2.4-1.6l0,0c0-1.2-2.1-1.7-4.3-2.4
			c-2.9-0.9-6.2-2.3-6.2-6.2l0,0c0-4.3,3.5-6.6,7.6-6.6c2.6,0,5.5,0.9,7.8,2.4l-2.3,4.2c-2.1-1.2-4.2-1.9-5.7-1.9
			c-1.4,0-2.3,0.7-2.3,1.4l0,0c0,1.2,1.9,1.7,4.3,2.4c2.9,1,6.2,2.4,6.2,6.2l0,0c0,4.7-3.5,6.8-8,6.8C43.5,29.1,40.2,28.1,37.5,26"
			/>
		<path class="st2" d="M72.3,25.6c-1.4,1.9-3.5,3.5-6.6,3.5c-4.9,0-9.5-3.8-9.5-10.7l0,0c0-6.9,4.5-10.7,9.5-10.7
			c3.1,0,5,1.4,6.6,3.1V8h5.9v27h-5.9V25.6z M72.5,18.4L72.5,18.4c0-3.5-2.3-5.9-5-5.9c-2.8,0-5,2.3-5,5.7l0,0c0,3.5,2.3,5.7,5,5.7
			C70,24.1,72.5,21.8,72.5,18.4"/>
		<path class="st2" d="M82.3,21.3V7.8h5.9v11.6c0,2.8,1.4,4.3,3.6,4.3c2.3,0,3.6-1.4,3.6-4.3V7.8h5.9v20.8h-5.9v-2.9
			c-1.4,1.7-3.1,3.3-6.1,3.3C84.9,29.1,82.3,26.2,82.3,21.3"/>
		<path class="st2" d="M104.5,22.7L104.5,22.7c0-4.7,3.5-6.8,8.5-6.8c2.1,0,3.6,0.3,5,0.9v-0.3c0-2.4-1.6-3.8-4.5-3.8
			c-2.3,0-3.8,0.3-5.7,1.2l-1.6-4.5c2.3-1,4.5-1.7,8.1-1.7c3.3,0,5.5,0.9,7.1,2.3c1.6,1.6,2.3,3.8,2.3,6.6v12.1H118v-2.3
			c-1.4,1.6-3.5,2.6-6.2,2.6C107.8,29.1,104.5,26.9,104.5,22.7 M118,21.3v-1c-1-0.5-2.3-0.7-3.8-0.7c-2.6,0-4.2,1-4.2,2.9l0,0
			c0,1.6,1.4,2.6,3.3,2.6C116.3,25,118,23.6,118,21.3"/>
		<path class="st2" d="M127.7,7.8h5.9V12c1.2-2.9,3.1-4.7,6.6-4.7v6.2h-0.3c-4,0-6.4,2.4-6.4,7.3v7.8h-5.9L127.7,7.8L127.7,7.8z"/>
		<path class="st2" d="M141.6,18.4L141.6,18.4c0-6.1,4.3-10.9,10.4-10.9c6.9,0,10.2,5.4,10.2,11.3c0,0.5,0,1,0,1.6h-14.7
			c0.5,2.8,2.4,4.2,5,4.2c1.9,0,3.5-0.7,5-2.1l3.5,2.9c-1.9,2.4-4.7,3.8-8.5,3.8C146.3,29.1,141.6,24.8,141.6,18.4 M156.3,16.6
			c-0.3-2.6-1.9-4.5-4.3-4.5s-4,1.7-4.5,4.5H156.3z"/>
		<path class="st2" d="M166,12.8h-2.4V8h2.4V6.6c0-2.3,0.5-4,1.7-5c1-1,2.8-1.6,4.9-1.6c1.9,0,3.1,0.2,4.2,0.5v4.9
			C175.9,5,175,4.9,174,4.9c-1.4,0-2.1,0.7-2.1,2.3V8h4.9v4.9h-4.7v15.8h-5.9V12.8H166z"/>
		<path class="st2" d="M177.5,18.4L177.5,18.4c0-6.1,4.9-10.9,11.3-10.9c6.4,0,11.3,4.9,11.3,10.7l0,0c0,6.1-4.9,10.9-11.3,10.9
			S177.5,24.4,177.5,18.4 M194.3,18.4L194.3,18.4c0-3.1-2.3-5.9-5.5-5.9c-3.5,0-5.4,2.6-5.4,5.7l0,0c0,3.1,2.3,5.7,5.5,5.7
			C192.2,24.1,194.3,21.5,194.3,18.4"/>
		<path class="st2" d="M202.1,18.4L202.1,18.4c0-6.1,4.9-10.9,11.3-10.9c6.4,0,11.3,4.9,11.3,10.7l0,0c0,6.1-4.9,10.9-11.3,10.9
			C206.7,29.1,202.1,24.4,202.1,18.4 M218.7,18.4L218.7,18.4c0-3.1-2.3-5.9-5.5-5.9c-3.5,0-5.4,2.6-5.4,5.7l0,0
			c0,3.1,2.3,5.7,5.5,5.7C216.8,24.1,218.7,21.5,218.7,18.4"/>
		<path class="st2" d="M228.2,22.9V13h-2.4V8h2.4V2.6h5.9V8h4.9v5h-4.9v8.8c0,1.4,0.5,2.1,1.9,2.1c1,0,2.1-0.3,2.9-0.7v4.7
			c-1.2,0.7-2.8,1.2-4.7,1.2C230.8,29.1,228.2,27.5,228.2,22.9"/>
		<path class="st2" d="M242.9,25.6c0-1.7,1.4-3.1,3.1-3.1c1.7,0,3.1,1.4,3.1,3.1s-1.4,3.1-3.1,3.1C244.3,28.8,242.9,27.4,242.9,25.6
			"/>
		<path class="st2" d="M251.8,18.4L251.8,18.4c0-6.1,4.5-10.9,10.9-10.9c4,0,6.4,1.4,8.3,3.5l-3.6,3.8c-1.4-1.4-2.6-2.3-4.7-2.3
			c-2.9,0-5,2.6-5,5.7l0,0c0,3.1,2.1,5.7,5.4,5.7c1.9,0,3.3-0.9,4.9-2.3l3.5,3.5c-2.1,2.3-4.3,3.8-8.5,3.8
			C256.3,29.1,251.8,24.4,251.8,18.4"/>
		<path class="st2" d="M272.1,18.4L272.1,18.4c0-6.1,4.9-10.9,11.3-10.9s11.3,4.9,11.3,10.7l0,0c0,6.1-4.9,10.9-11.3,10.9
			C276.7,29.1,272.1,24.4,272.1,18.4 M288.7,18.4L288.7,18.4c0-3.1-2.3-5.9-5.5-5.9c-3.5,0-5.4,2.6-5.4,5.7l0,0
			c0,3.1,2.3,5.7,5.5,5.7C286.8,24.1,288.7,21.5,288.7,18.4"/>
		<path class="st2" d="M297.7,7.8h5.9v2.9c1.4-1.7,3.1-3.3,6.2-3.3c2.8,0,4.9,1.2,5.9,3.3c1.9-2.1,4-3.3,6.9-3.3
			c4.3,0,7.1,2.6,7.1,7.6v13.5h-5.9V17c0-2.8-1.2-4.3-3.5-4.3c-2.3,0-3.6,1.4-3.6,4.3v11.6h-5.9V17c0-2.8-1.2-4.3-3.5-4.3
			c-2.3,0-3.6,1.4-3.6,4.3v11.6h-5.9V7.8H297.7z"/>
		<path class="st2" d="M333.9,25.6c0-1.7,1.4-3.1,3.1-3.1c1.7,0,3.1,1.4,3.1,3.1s-1.4,3.1-3.1,3.1C335.3,28.8,333.9,27.4,333.9,25.6
			"/>
		<path class="st2" d="M344.3,0.3h5.9v10.6c1.4-1.7,3.1-3.3,6.1-3.3c4.5,0,7.1,2.9,7.1,7.8v13.5h-5.9V17.3c0-2.8-1.4-4.3-3.6-4.3
			s-3.6,1.4-3.6,4.3v11.6h-5.9V0.3z"/>
		<polygon class="st2" points="367.7,0.3 373.6,0.3 373.6,15.4 380.5,7.8 387.6,7.8 379.7,16.1 387.8,28.8 381,28.8 375.7,20.1
			373.6,22.4 373.6,28.8 367.7,28.8 		"/>
	</g>
</g>
</svg>
